<svg width="150" height="27" viewBox="0 0 150 27" fill="none" xmlns="http://www.w3.org/2000/svg">
<path d="M18.4779 0.99066L15.9166 26.928H11.0867C11.0501 25.8712 11.0074 24.8806 10.9587 23.956C10.9221 23.0193 10.8672 22.1248 10.794 21.2722C10.7208 20.4196 10.6354 19.5851 10.5379 18.7685C10.4525 17.952 10.3488 17.1174 10.2269 16.2648C10.1171 15.4123 9.98902 14.5297 9.84266 13.6171C9.6963 12.6925 9.53775 11.7078 9.367 10.6631C9.13526 12.008 8.81205 14.0253 8.39737 16.7151C7.98268 19.3929 7.48262 22.7372 6.89718 26.7478L1.82949 27L0 1.09873L4.61032 0.99066C4.59812 1.73516 4.59202 2.5457 4.59202 3.42228C4.57983 4.17879 4.57373 5.04937 4.57373 6.03402C4.57373 7.00667 4.57373 8.04536 4.57373 9.1501C4.57373 10.0267 4.57373 10.9153 4.57373 11.8159C4.57373 12.7165 4.57373 13.6051 4.57373 14.4817C4.58593 15.3462 4.59202 16.1808 4.59202 16.9853C4.60422 17.7899 4.62251 18.5223 4.64691 19.1828L7.15331 3.49433H11.3794L13.3736 18.4443C13.398 17.5557 13.4224 16.6191 13.4468 15.6344C13.4834 14.6378 13.5138 13.6351 13.5382 12.6264C13.5626 11.6177 13.5809 10.6211 13.5931 9.63642C13.6175 8.65177 13.6419 7.70914 13.6663 6.80854C13.7151 4.70714 13.7578 2.61174 13.7944 0.522348L18.4779 0.99066Z" fill="white"/>
<path d="M24.8994 0.36024C24.7774 2.73783 24.6737 5.0974 24.5884 7.43896C24.503 9.76851 24.442 12.1101 24.4054 14.4636C24.7103 14.4877 25.0152 14.4997 25.3202 14.4997C25.6373 14.4997 25.9483 14.4997 26.2532 14.4997C26.6435 14.4997 27.0399 14.4937 27.4424 14.4817C27.8571 14.4696 28.2717 14.4516 28.6864 14.4276C28.7108 13.8993 28.723 13.3829 28.723 12.8786C28.723 12.3622 28.723 11.8339 28.723 11.2935C28.723 9.46831 28.7047 7.6491 28.6681 5.83589C28.6315 4.02268 28.5706 2.19746 28.4852 0.36024H32.9857C32.7662 3.25417 32.5954 6.13009 32.4735 8.98799C32.3637 11.8339 32.3088 14.7038 32.3088 17.5977C32.3088 19.0147 32.3271 20.4256 32.3637 21.8306C32.4003 23.2355 32.4491 24.6524 32.5101 26.0814H28.3388C28.3998 24.6524 28.4547 23.2295 28.5035 21.8125C28.5523 20.3956 28.601 18.9787 28.6498 17.5617C27.9546 17.5257 27.2594 17.4957 26.5642 17.4716C25.8812 17.4356 25.1982 17.4176 24.5152 17.4176H24.3688V21.1281C24.3688 21.9686 24.3688 22.7972 24.3688 23.6137C24.3688 24.4303 24.381 25.2528 24.4054 26.0814H20.2159C20.2769 24.3522 20.3135 22.6471 20.3256 20.966C20.35 19.2728 20.3622 17.5737 20.3622 15.8686C20.3622 10.7051 20.2525 5.53569 20.0329 0.36024H24.8994Z" fill="white"/>
<path d="M42.6271 26.3696C42.5662 25.541 42.5052 24.7065 42.4442 23.8659C42.3954 23.0254 42.3344 22.1788 42.2612 21.3262C41.7246 21.2902 41.2062 21.2542 40.7062 21.2181C40.2061 21.1821 39.7 21.1641 39.1877 21.1641H38.9499C38.8889 22.0287 38.834 22.8813 38.7852 23.7218C38.7364 24.5624 38.6937 25.3969 38.6572 26.2255L34.0834 26.1534C34.8396 21.8666 35.5226 17.5917 36.1325 13.3289C36.7423 9.06604 37.2606 4.76718 37.6875 0.432288L43.1943 0.522348C43.6578 4.80921 44.2127 9.07205 44.8591 13.3109C45.5177 17.5377 46.2861 21.7945 47.1643 26.0814L42.6271 26.3696ZM40.4866 4.97131C40.2427 7.18079 40.011 9.38426 39.7914 11.5817C39.5719 13.7792 39.3707 15.9947 39.1877 18.2282C39.4438 18.2522 39.7061 18.2642 39.9744 18.2642C40.2427 18.2642 40.5171 18.2642 40.7977 18.2642H41.9868C41.7795 16.0307 41.5477 13.8152 41.2916 11.6177C41.0355 9.42028 40.7672 7.2048 40.4866 4.97131Z" fill="white"/>
<path d="M58.4705 25.7752C57.9949 25.9913 57.5253 26.1534 57.0618 26.2615C56.5984 26.3816 56.1837 26.4716 55.8178 26.5317C55.3909 26.5917 54.9762 26.6278 54.5737 26.6398C54.1347 26.6398 53.659 26.5617 53.1467 26.4056C52.6467 26.2495 52.1405 25.9853 51.6282 25.6131C51.116 25.2288 50.622 24.7125 50.1464 24.064C49.6707 23.4036 49.2499 22.5811 48.884 21.5964C48.5181 20.5997 48.2254 19.4109 48.0059 18.03C47.7863 16.6491 47.6765 15.04 47.6765 13.2028C47.6765 11.3656 47.8046 9.76251 48.0607 8.3936C48.3291 7.02468 48.6706 5.8539 49.0853 4.88125C49.5121 3.8966 49.9878 3.09206 50.5123 2.46765C51.0489 1.83122 51.5917 1.33289 52.1405 0.972648C52.6894 0.6004 53.2199 0.348232 53.7322 0.216144C54.2566 0.072048 54.7079 0 55.086 0C55.4397 0.012008 55.7873 0.048032 56.1288 0.108072C56.4215 0.168112 56.7264 0.258172 57.0435 0.378252C57.3728 0.498332 57.6595 0.666444 57.9034 0.882588L57.5375 4.503C57.196 4.33489 56.8728 4.21481 56.5679 4.14276C56.2752 4.05871 55.9946 4.01668 55.7263 4.01668C55.2141 4.01668 54.7567 4.15477 54.3542 4.43095C53.9639 4.69513 53.6224 5.04937 53.3297 5.49366C53.0492 5.93796 52.8052 6.44229 52.5979 7.00667C52.4027 7.57105 52.2442 8.14743 52.1222 8.73582C51.8173 10.1167 51.6465 11.6898 51.61 13.455C51.6465 15.2081 51.8234 16.7692 52.1405 18.1381C52.2747 18.7265 52.4393 19.3029 52.6345 19.8672C52.8418 20.4196 53.0918 20.9179 53.3846 21.3622C53.6773 21.7945 54.0188 22.1428 54.4091 22.4069C54.8116 22.6711 55.275 22.8032 55.7995 22.8032C56.3727 22.8032 57.0374 22.6051 57.7936 22.2088L58.4705 25.7752Z" fill="white"/>
<path d="M69.2462 12.1761V15.4903L59.2023 15.5264V11.9059L69.2462 12.1761Z" fill="white"/>
<path d="M78.7779 26.3696C78.7169 25.541 78.6559 24.7065 78.5949 23.8659C78.5462 23.0254 78.4852 22.1788 78.412 21.3262C77.8754 21.2902 77.357 21.2542 76.8569 21.2181C76.3569 21.1821 75.8507 21.1641 75.3385 21.1641H75.1006C75.0396 22.0287 74.9848 22.8813 74.936 23.7218C74.8872 24.5624 74.8445 25.3969 74.8079 26.2255L70.2342 26.1534C70.9904 21.8666 71.6734 17.5917 72.2832 13.3289C72.893 9.06604 73.4114 4.76718 73.8383 0.432288L79.345 0.522348C79.8085 4.80921 80.3635 9.07205 81.0099 13.3109C81.6685 17.5377 82.4369 21.7945 83.315 26.0814L78.7779 26.3696ZM76.6374 4.97131C76.3935 7.18079 76.1617 9.38426 75.9422 11.5817C75.7226 13.7792 75.5214 15.9947 75.3385 18.2282C75.5946 18.2522 75.8568 18.2642 76.1251 18.2642C76.3935 18.2642 76.6679 18.2642 76.9484 18.2642H78.1376C77.9302 16.0307 77.6985 13.8152 77.4424 11.6177C77.1862 9.42028 76.9179 7.2048 76.6374 4.97131Z" fill="white"/>
<path d="M94.2005 12.1761V15.4903L84.1566 15.5264V11.9059L94.2005 12.1761Z" fill="white"/>
<path d="M109.385 26.2615C109.422 24.4243 109.465 22.557 109.513 20.6598C109.526 19.8552 109.538 19.0027 109.55 18.1021C109.574 17.2015 109.593 16.2889 109.605 15.3642C109.617 14.4396 109.623 13.515 109.623 12.5904C109.635 11.6658 109.641 10.7772 109.641 9.92462C109.641 9.36024 109.641 8.82588 109.641 8.32155C109.641 7.8052 109.629 7.31888 109.605 6.86258C109.458 7.75117 109.269 8.89793 109.038 10.3029C108.818 11.6958 108.586 13.2388 108.342 14.932C108.099 16.6131 107.855 18.3963 107.611 20.2815C107.379 22.1668 107.172 24.04 106.989 25.9013L103.513 25.8112C103.22 23.938 102.933 22.0947 102.653 20.2815C102.384 18.4683 102.122 16.7452 101.866 15.1121C101.622 13.479 101.397 11.966 101.189 10.573C100.982 9.18012 100.805 7.96731 100.659 6.93462V13.2028C100.659 14.4997 100.665 15.8085 100.677 17.1294C100.689 18.4383 100.701 19.6751 100.714 20.8399C100.738 22.0047 100.768 23.0554 100.805 23.992C100.842 24.9166 100.89 25.6371 100.951 26.1534L95.9751 26.4416C96.1581 25.4209 96.3044 24.2742 96.4142 23.0013C96.5362 21.7285 96.6276 20.3956 96.6886 19.0027C96.7618 17.6097 96.8106 16.1928 96.835 14.7518C96.8594 13.3109 96.8716 11.9119 96.8716 10.555C96.8716 9.16211 96.8594 7.85924 96.835 6.64643C96.8228 5.43362 96.8045 4.37091 96.7801 3.45831C96.7435 2.38959 96.713 1.41094 96.6886 0.522348C97.0789 0.582388 97.4875 0.636424 97.9144 0.684456C98.3413 0.72048 98.762 0.7505 99.1767 0.774516C99.5914 0.798532 99.9939 0.816544 100.384 0.828552C100.774 0.84056 101.128 0.846564 101.445 0.846564C101.653 0.846564 101.842 0.846564 102.012 0.846564C102.195 0.846564 102.354 0.84056 102.488 0.828552C102.634 0.828552 102.763 0.822548 102.872 0.81054C103.458 4.7972 103.952 8.15944 104.354 10.8973C104.757 13.6351 105.074 15.7185 105.306 17.1474C105.44 16.2348 105.568 15.2982 105.69 14.3376C105.824 13.3649 105.946 12.4043 106.056 11.4556C106.165 10.507 106.263 9.58239 106.348 8.68179C106.446 7.76918 106.531 6.91061 106.604 6.10607C106.775 4.20881 106.928 2.37158 107.062 0.594396C107.33 0.618412 107.623 0.642428 107.94 0.666444C108.221 0.69046 108.55 0.708472 108.928 0.72048C109.318 0.732488 109.745 0.738492 110.209 0.738492C110.672 0.738492 111.172 0.732488 111.709 0.72048C112.245 0.696464 112.806 0.654436 113.392 0.594396C113.246 5.08539 113.172 8.96998 113.172 12.2482C113.172 14.6618 113.197 16.7392 113.246 18.4803C113.306 20.2215 113.367 21.6624 113.428 22.8032C113.502 24.1481 113.593 25.2648 113.703 26.1534L109.385 26.2615Z" fill="white"/>
<path d="M123.417 16.5891C123.039 16.565 122.655 16.547 122.265 16.535C121.875 16.523 121.484 16.517 121.094 16.517C120.874 16.517 120.643 16.523 120.399 16.535C120.167 16.547 119.935 16.553 119.704 16.553L119.63 22.9833C120.631 22.9593 121.6 22.9113 122.539 22.8392C123.491 22.7672 124.497 22.6531 125.558 22.497V26.2615C124.875 26.2375 124.21 26.2195 123.564 26.2075C122.93 26.1955 122.295 26.1895 121.661 26.1895C120.71 26.1895 119.771 26.2015 118.844 26.2255C117.917 26.2615 116.959 26.3095 115.971 26.3696C116.081 24.1361 116.167 21.9266 116.228 19.7412C116.301 17.5437 116.337 15.3282 116.337 13.0947C116.337 10.9573 116.307 8.83789 116.246 6.73649C116.197 4.62308 116.106 2.49766 115.971 0.36024C117.411 0.468312 118.783 0.522348 120.088 0.522348C120.917 0.522348 121.74 0.504336 122.558 0.468312C123.387 0.42028 124.271 0.36024 125.21 0.288192V4.43095C124.454 4.29887 123.704 4.1968 122.96 4.12475C122.228 4.0527 121.497 4.01668 120.765 4.01668H120.051C119.929 5.51768 119.844 7.01267 119.795 8.50167C119.759 9.99066 119.728 11.4857 119.704 12.9867C120.021 13.0107 120.338 13.0227 120.655 13.0227C120.984 13.0227 121.32 13.0227 121.661 13.0227C121.942 13.0227 122.228 13.0227 122.521 13.0227C122.814 13.0227 123.113 13.0107 123.417 12.9867V16.5891Z" fill="white"/>
<path d="M134.687 26.3696C134.626 25.541 134.565 24.7065 134.504 23.8659C134.455 23.0254 134.394 22.1788 134.321 21.3262C133.785 21.2902 133.266 21.2542 132.766 21.2181C132.266 21.1821 131.76 21.1641 131.248 21.1641H131.01C130.949 22.0287 130.894 22.8813 130.845 23.7218C130.796 24.5624 130.754 25.3969 130.717 26.2255L126.143 26.1534C126.9 21.8666 127.583 17.5917 128.192 13.3289C128.802 9.06604 129.321 4.76718 129.748 0.432288L135.254 0.522348C135.718 4.80921 136.273 9.07205 136.919 13.3109C137.578 17.5377 138.346 21.7945 139.224 26.0814L134.687 26.3696ZM132.547 4.97131C132.303 7.18079 132.071 9.38426 131.851 11.5817C131.632 13.7792 131.431 15.9947 131.248 18.2282C131.504 18.2522 131.766 18.2642 132.034 18.2642C132.303 18.2642 132.577 18.2642 132.858 18.2642H134.047C133.839 16.0307 133.608 13.8152 133.352 11.6177C133.095 9.42028 132.827 7.2048 132.547 4.97131Z" fill="white"/>
<path d="M150 26.2615C149.317 26.2375 148.652 26.2195 148.006 26.2075C147.372 26.1955 146.737 26.1895 146.103 26.1895C145.152 26.1895 144.213 26.2015 143.286 26.2255C142.359 26.2615 141.401 26.3095 140.413 26.3696C140.523 24.1361 140.609 21.9266 140.67 19.7412C140.743 17.5437 140.779 15.3282 140.779 13.0947C140.779 10.9573 140.749 8.83789 140.688 6.73649C140.639 4.62308 140.548 2.49766 140.413 0.36024C140.535 0.372248 140.676 0.378252 140.834 0.378252C140.968 0.39026 141.133 0.396264 141.328 0.396264C141.523 0.396264 141.743 0.396264 141.987 0.396264C142.377 0.396264 142.798 0.39026 143.249 0.378252C143.713 0.354236 144.176 0.324216 144.64 0.288192C144.481 2.01734 144.365 3.83656 144.292 5.74583C144.231 7.6551 144.188 9.58839 144.164 11.5457C144.152 13.491 144.14 15.4363 144.127 17.3816C144.127 19.3149 144.109 21.1821 144.072 22.9833C145.073 22.9593 146.042 22.9113 146.981 22.8392C147.933 22.7672 148.939 22.6531 150 22.497V26.2615Z" fill="white"/>
</svg>
